<svg width="48" height="64" viewBox="0 0 48 64" fill="none" xmlns="http://www.w3.org/2000/svg">
<rect width="48" height="48" rx="4" fill="url(#paint0_linear_1_3313)"/>
<path d="M17.5766 21.9603L19.5266 22.7853C19.7599 22.3186 20.0016 21.8686 20.2516 21.4353C20.5016 21.002 20.7766 20.5686 21.0766 20.1353L19.6766 19.8603L17.5766 21.9603ZM21.1266 24.0353L23.9766 26.8603C24.6766 26.5936 25.4266 26.1853 26.2266 25.6353C27.0266 25.0853 27.7766 24.4603 28.4766 23.7603C29.6432 22.5936 30.5557 21.2978 31.2141 19.8728C31.8724 18.4478 32.1599 17.1353 32.0766 15.9353C30.8766 15.852 29.5599 16.1395 28.1266 16.7978C26.6932 17.4561 25.3932 18.3686 24.2266 19.5353C23.5266 20.2353 22.9016 20.9853 22.3516 21.7853C21.8016 22.5853 21.3932 23.3353 21.1266 24.0353ZM25.5766 22.4103C25.1932 22.027 25.0016 21.5561 25.0016 20.9978C25.0016 20.4395 25.1932 19.9686 25.5766 19.5853C25.9599 19.202 26.4349 19.0103 27.0016 19.0103C27.5682 19.0103 28.0432 19.202 28.4266 19.5853C28.8099 19.9686 29.0016 20.4395 29.0016 20.9978C29.0016 21.5561 28.8099 22.027 28.4266 22.4103C28.0432 22.7936 27.5682 22.9853 27.0016 22.9853C26.4349 22.9853 25.9599 22.7936 25.5766 22.4103ZM26.0516 30.4353L28.1516 28.3353L27.8766 26.9353C27.4432 27.2353 27.0099 27.5061 26.5766 27.7478C26.1432 27.9895 25.6932 28.227 25.2266 28.4603L26.0516 30.4353ZM33.8766 14.1103C34.1932 16.127 33.9974 18.0895 33.2891 19.9978C32.5807 21.9061 31.3599 23.727 29.6266 25.4603L30.1266 27.9353C30.1932 28.2686 30.1766 28.5936 30.0766 28.9103C29.9766 29.227 29.8099 29.502 29.5766 29.7353L25.3766 33.9353L23.2766 29.0103L19.0016 24.7353L14.0766 22.6353L18.2516 18.4353C18.4849 18.202 18.7641 18.0353 19.0891 17.9353C19.4141 17.8353 19.7432 17.8186 20.0766 17.8853L22.5516 18.3853C24.2849 16.652 26.1016 15.427 28.0016 14.7103C29.9016 13.9936 31.8599 13.7936 33.8766 14.1103ZM15.8516 27.9103C16.4349 27.327 17.1474 27.0311 17.9891 27.0228C18.8307 27.0145 19.5432 27.302 20.1266 27.8853C20.7099 28.4686 20.9974 29.1811 20.9891 30.0228C20.9807 30.8645 20.6849 31.577 20.1016 32.1603C19.6849 32.577 18.9891 32.9353 18.0141 33.2353C17.0391 33.5353 15.6932 33.802 13.9766 34.0353C14.2099 32.3186 14.4766 30.9728 14.7766 29.9978C15.0766 29.0228 15.4349 28.327 15.8516 27.9103ZM17.2766 29.3103C17.1099 29.477 16.9432 29.7811 16.7766 30.2228C16.6099 30.6645 16.4932 31.1103 16.4266 31.5603C16.8766 31.4936 17.3224 31.3811 17.7641 31.2228C18.2057 31.0645 18.5099 30.902 18.6766 30.7353C18.8766 30.5353 18.9849 30.2936 19.0016 30.0103C19.0182 29.727 18.9266 29.4853 18.7266 29.2853C18.5266 29.0853 18.2849 28.9895 18.0016 28.9978C17.7182 29.0061 17.4766 29.1103 17.2766 29.3103Z" fill="#002388"/>
<defs>
<linearGradient id="paint0_linear_1_3313" x1="0" y1="0" x2="48" y2="48" gradientUnits="userSpaceOnUse">
<stop stop-color="#B8C3FF"/>
<stop offset="1" stop-color="#3B5BDB"/>
</linearGradient>
</defs>
</svg>
